<svg width="178" height="151" fill="none" xmlns="http://www.w3.org/2000/svg"><circle cx="6.846" cy="6.846" r="6.846" fill="#2DA5FC" fill-opacity=".5"/><circle cx="34.23" cy="6.846" r="6.846" fill="#2DA5FC" fill-opacity=".5"/><circle cx="61.615" cy="6.846" r="6.846" fill="#2DA5FC" fill-opacity=".5"/><circle cx="88.999" cy="6.846" r="6.846" fill="#2DA5FC" fill-opacity=".5"/><circle cx="116.385" cy="6.846" r="6.846" fill="#2DA5FC" fill-opacity=".5"/><circle cx="143.769" cy="6.846" r="6.846" fill="#2DA5FC" fill-opacity=".5"/><circle cx="171.154" cy="6.846" r="6.846" fill="#2DA5FC" fill-opacity=".5"/><circle cx="6.846" cy="34.231" r="6.846" fill="#2DA5FC" fill-opacity=".5"/><circle cx="34.23" cy="34.231" r="6.846" fill="#2DA5FC" fill-opacity=".5"/><circle cx="61.615" cy="34.231" r="6.846" fill="#2DA5FC" fill-opacity=".5"/><circle cx="88.999" cy="34.231" r="6.846" fill="#2DA5FC" fill-opacity=".5"/><circle cx="116.385" cy="34.231" r="6.846" fill="#2DA5FC" fill-opacity=".5"/><circle cx="143.769" cy="34.231" r="6.846" fill="#2DA5FC" fill-opacity=".5"/><circle cx="171.154" cy="34.231" r="6.846" fill="#2DA5FC" fill-opacity=".5"/><circle cx="6.846" cy="61.615" r="6.846" fill="#2DA5FC" fill-opacity=".5"/><circle cx="34.23" cy="61.615" r="6.846" fill="#2DA5FC" fill-opacity=".5"/><circle cx="61.615" cy="61.615" r="6.846" fill="#2DA5FC" fill-opacity=".5"/><circle cx="88.999" cy="61.615" r="6.846" fill="#2DA5FC" fill-opacity=".5"/><circle cx="116.385" cy="61.615" r="6.846" fill="#2DA5FC" fill-opacity=".5"/><circle cx="143.769" cy="61.615" r="6.846" fill="#2DA5FC" fill-opacity=".5"/><circle cx="171.154" cy="61.615" r="6.846" fill="#2DA5FC" fill-opacity=".5"/><circle cx="6.846" cy="89" r="6.846" fill="#2DA5FC" fill-opacity=".5"/><circle cx="34.23" cy="89" r="6.846" fill="#2DA5FC" fill-opacity=".5"/><circle cx="61.615" cy="89" r="6.846" fill="#2DA5FC" fill-opacity=".5"/><circle cx="88.999" cy="89" r="6.846" fill="#2DA5FC" fill-opacity=".5"/><circle cx="116.385" cy="89" r="6.846" fill="#2DA5FC" fill-opacity=".5"/><circle cx="143.769" cy="89" r="6.846" fill="#2DA5FC" fill-opacity=".5"/><circle cx="171.154" cy="89" r="6.846" fill="#2DA5FC" fill-opacity=".5"/><circle cx="6.846" cy="116.385" r="6.846" fill="#2DA5FC" fill-opacity=".5"/><circle cx="34.23" cy="116.385" r="6.846" fill="#2DA5FC" fill-opacity=".5"/><circle cx="61.615" cy="116.385" r="6.846" fill="#2DA5FC" fill-opacity=".5"/><circle cx="88.999" cy="116.385" r="6.846" fill="#2DA5FC" fill-opacity=".5"/><circle cx="116.385" cy="116.385" r="6.846" fill="#2DA5FC" fill-opacity=".5"/><circle cx="143.769" cy="116.385" r="6.846" fill="#2DA5FC" fill-opacity=".5"/><circle cx="171.154" cy="116.385" r="6.846" fill="#2DA5FC" fill-opacity=".5"/><circle cx="6.846" cy="143.769" r="6.846" fill="#2DA5FC" fill-opacity=".5"/><circle cx="34.23" cy="143.769" r="6.846" fill="#2DA5FC" fill-opacity=".5"/><circle cx="61.615" cy="143.769" r="6.846" fill="#2DA5FC" fill-opacity=".5"/><circle cx="88.999" cy="143.769" r="6.846" fill="#2DA5FC" fill-opacity=".5"/><circle cx="116.385" cy="143.769" r="6.846" fill="#2DA5FC" fill-opacity=".5"/><circle cx="143.769" cy="143.769" r="6.846" fill="#2DA5FC" fill-opacity=".5"/><circle cx="171.154" cy="143.769" r="6.846" fill="#2DA5FC" fill-opacity=".5"/></svg>